<?xml version="1.0" encoding="utf-8" standalone="no"?>
<!DOCTYPE svg PUBLIC "-//W3C//DTD SVG 1.1//EN"
  "http://www.w3.org/Graphics/SVG/1.1/DTD/svg11.dtd">
<svg xmlns:xlink="http://www.w3.org/1999/xlink" width="576pt" height="432pt" viewBox="0 0 576 432" xmlns="http://www.w3.org/2000/svg" version="1.1">
 <metadata>
  <rdf:RDF xmlns:dc="http://purl.org/dc/elements/1.1/" xmlns:cc="http://creativecommons.org/ns#" xmlns:rdf="http://www.w3.org/1999/02/22-rdf-syntax-ns#">
   <cc:Work>
    <dc:type rdf:resource="http://purl.org/dc/dcmitype/StillImage"/>
    <dc:date>2023-05-22T10:26:29.817483</dc:date>
    <dc:format>image/svg+xml</dc:format>
    <dc:creator>
     <cc:Agent>
      <dc:title>Matplotlib v3.6.2, https://matplotlib.org/</dc:title>
     </cc:Agent>
    </dc:creator>
   </cc:Work>
  </rdf:RDF>
 </metadata>
 <defs>
  <style type="text/css">*{stroke-linejoin: round; stroke-linecap: butt}</style>
 </defs>
 <g id="figure_1">
  <g id="patch_1">
   <path d="M 0 432 
L 576 432 
L 576 0 
L 0 0 
z
" style="fill: #ffffff"/>
  </g>
  <g id="axes_1">
   <g id="patch_2">
    <path d="M 50.565625 390.84375 
L 557.248437 390.84375 
L 557.248437 14.599219 
L 50.565625 14.599219 
z
" style="fill: #ffffff"/>
   </g>
   <g id="matplotlib.axis_1">
    <g id="xtick_1">
     <g id="line2d_1">
      <path d="M 50.565625 390.84375 
L 50.565625 14.599219 
" clip-path="url(#pd2ff043297)" style="fill: none; stroke: #b0b0b0; stroke-width: 0.8; stroke-linecap: square"/>
     </g>
     <g id="line2d_2">
      <defs>
       <path id="m77eb35f2d2" d="M 0 0 
L 0 3.5 
" style="stroke: #000000; stroke-width: 0.8"/>
      </defs>
      <g>
       <use xlink:href="#m77eb35f2d2" x="50.565625" y="390.84375" style="stroke: #000000; stroke-width: 0.8"/>
      </g>
     </g>
     <g id="text_1">
      <!-- 6.0 -->
      <g transform="translate(42.614062 405.442187) scale(0.1 -0.1)">
       <defs>
        <path id="DejaVuSans-36" d="M 2113 2584 
Q 1688 2584 1439 2293 
Q 1191 2003 1191 1497 
Q 1191 994 1439 701 
Q 1688 409 2113 409 
Q 2538 409 2786 701 
Q 3034 994 3034 1497 
Q 3034 2003 2786 2293 
Q 2538 2584 2113 2584 
z
M 3366 4563 
L 3366 3988 
Q 3128 4100 2886 4159 
Q 2644 4219 2406 4219 
Q 1781 4219 1451 3797 
Q 1122 3375 1075 2522 
Q 1259 2794 1537 2939 
Q 1816 3084 2150 3084 
Q 2853 3084 3261 2657 
Q 3669 2231 3669 1497 
Q 3669 778 3244 343 
Q 2819 -91 2113 -91 
Q 1303 -91 875 529 
Q 447 1150 447 2328 
Q 447 3434 972 4092 
Q 1497 4750 2381 4750 
Q 2619 4750 2861 4703 
Q 3103 4656 3366 4563 
z
" transform="scale(0.015625)"/>
        <path id="DejaVuSans-2e" d="M 684 794 
L 1344 794 
L 1344 0 
L 684 0 
L 684 794 
z
" transform="scale(0.015625)"/>
        <path id="DejaVuSans-30" d="M 2034 4250 
Q 1547 4250 1301 3770 
Q 1056 3291 1056 2328 
Q 1056 1369 1301 889 
Q 1547 409 2034 409 
Q 2525 409 2770 889 
Q 3016 1369 3016 2328 
Q 3016 3291 2770 3770 
Q 2525 4250 2034 4250 
z
M 2034 4750 
Q 2819 4750 3233 4129 
Q 3647 3509 3647 2328 
Q 3647 1150 3233 529 
Q 2819 -91 2034 -91 
Q 1250 -91 836 529 
Q 422 1150 422 2328 
Q 422 3509 836 4129 
Q 1250 4750 2034 4750 
z
" transform="scale(0.015625)"/>
       </defs>
       <use xlink:href="#DejaVuSans-36"/>
       <use xlink:href="#DejaVuSans-2e" x="63.623047"/>
       <use xlink:href="#DejaVuSans-30" x="95.410156"/>
      </g>
     </g>
    </g>
    <g id="xtick_2">
     <g id="line2d_3">
      <path d="M 122.948884 390.84375 
L 122.948884 14.599219 
" clip-path="url(#pd2ff043297)" style="fill: none; stroke: #b0b0b0; stroke-width: 0.8; stroke-linecap: square"/>
     </g>
     <g id="line2d_4">
      <g>
       <use xlink:href="#m77eb35f2d2" x="122.948884" y="390.84375" style="stroke: #000000; stroke-width: 0.8"/>
      </g>
     </g>
     <g id="text_2">
      <!-- 6.5 -->
      <g transform="translate(114.997321 405.442187) scale(0.1 -0.1)">
       <defs>
        <path id="DejaVuSans-35" d="M 691 4666 
L 3169 4666 
L 3169 4134 
L 1269 4134 
L 1269 2991 
Q 1406 3038 1543 3061 
Q 1681 3084 1819 3084 
Q 2600 3084 3056 2656 
Q 3513 2228 3513 1497 
Q 3513 744 3044 326 
Q 2575 -91 1722 -91 
Q 1428 -91 1123 -41 
Q 819 9 494 109 
L 494 744 
Q 775 591 1075 516 
Q 1375 441 1709 441 
Q 2250 441 2565 725 
Q 2881 1009 2881 1497 
Q 2881 1984 2565 2268 
Q 2250 2553 1709 2553 
Q 1456 2553 1204 2497 
Q 953 2441 691 2322 
L 691 4666 
z
" transform="scale(0.015625)"/>
       </defs>
       <use xlink:href="#DejaVuSans-36"/>
       <use xlink:href="#DejaVuSans-2e" x="63.623047"/>
       <use xlink:href="#DejaVuSans-35" x="95.410156"/>
      </g>
     </g>
    </g>
    <g id="xtick_3">
     <g id="line2d_5">
      <path d="M 195.332143 390.84375 
L 195.332143 14.599219 
" clip-path="url(#pd2ff043297)" style="fill: none; stroke: #b0b0b0; stroke-width: 0.8; stroke-linecap: square"/>
     </g>
     <g id="line2d_6">
      <g>
       <use xlink:href="#m77eb35f2d2" x="195.332143" y="390.84375" style="stroke: #000000; stroke-width: 0.8"/>
      </g>
     </g>
     <g id="text_3">
      <!-- 7.0 -->
      <g transform="translate(187.38058 405.442187) scale(0.1 -0.1)">
       <defs>
        <path id="DejaVuSans-37" d="M 525 4666 
L 3525 4666 
L 3525 4397 
L 1831 0 
L 1172 0 
L 2766 4134 
L 525 4134 
L 525 4666 
z
" transform="scale(0.015625)"/>
       </defs>
       <use xlink:href="#DejaVuSans-37"/>
       <use xlink:href="#DejaVuSans-2e" x="63.623047"/>
       <use xlink:href="#DejaVuSans-30" x="95.410156"/>
      </g>
     </g>
    </g>
    <g id="xtick_4">
     <g id="line2d_7">
      <path d="M 267.715402 390.84375 
L 267.715402 14.599219 
" clip-path="url(#pd2ff043297)" style="fill: none; stroke: #b0b0b0; stroke-width: 0.8; stroke-linecap: square"/>
     </g>
     <g id="line2d_8">
      <g>
       <use xlink:href="#m77eb35f2d2" x="267.715402" y="390.84375" style="stroke: #000000; stroke-width: 0.8"/>
      </g>
     </g>
     <g id="text_4">
      <!-- 7.5 -->
      <g transform="translate(259.763839 405.442187) scale(0.1 -0.1)">
       <use xlink:href="#DejaVuSans-37"/>
       <use xlink:href="#DejaVuSans-2e" x="63.623047"/>
       <use xlink:href="#DejaVuSans-35" x="95.410156"/>
      </g>
     </g>
    </g>
    <g id="xtick_5">
     <g id="line2d_9">
      <path d="M 340.098661 390.84375 
L 340.098661 14.599219 
" clip-path="url(#pd2ff043297)" style="fill: none; stroke: #b0b0b0; stroke-width: 0.8; stroke-linecap: square"/>
     </g>
     <g id="line2d_10">
      <g>
       <use xlink:href="#m77eb35f2d2" x="340.098661" y="390.84375" style="stroke: #000000; stroke-width: 0.8"/>
      </g>
     </g>
     <g id="text_5">
      <!-- 8.0 -->
      <g transform="translate(332.147098 405.442187) scale(0.1 -0.1)">
       <defs>
        <path id="DejaVuSans-38" d="M 2034 2216 
Q 1584 2216 1326 1975 
Q 1069 1734 1069 1313 
Q 1069 891 1326 650 
Q 1584 409 2034 409 
Q 2484 409 2743 651 
Q 3003 894 3003 1313 
Q 3003 1734 2745 1975 
Q 2488 2216 2034 2216 
z
M 1403 2484 
Q 997 2584 770 2862 
Q 544 3141 544 3541 
Q 544 4100 942 4425 
Q 1341 4750 2034 4750 
Q 2731 4750 3128 4425 
Q 3525 4100 3525 3541 
Q 3525 3141 3298 2862 
Q 3072 2584 2669 2484 
Q 3125 2378 3379 2068 
Q 3634 1759 3634 1313 
Q 3634 634 3220 271 
Q 2806 -91 2034 -91 
Q 1263 -91 848 271 
Q 434 634 434 1313 
Q 434 1759 690 2068 
Q 947 2378 1403 2484 
z
M 1172 3481 
Q 1172 3119 1398 2916 
Q 1625 2713 2034 2713 
Q 2441 2713 2670 2916 
Q 2900 3119 2900 3481 
Q 2900 3844 2670 4047 
Q 2441 4250 2034 4250 
Q 1625 4250 1398 4047 
Q 1172 3844 1172 3481 
z
" transform="scale(0.015625)"/>
       </defs>
       <use xlink:href="#DejaVuSans-38"/>
       <use xlink:href="#DejaVuSans-2e" x="63.623047"/>
       <use xlink:href="#DejaVuSans-30" x="95.410156"/>
      </g>
     </g>
    </g>
    <g id="xtick_6">
     <g id="line2d_11">
      <path d="M 412.48192 390.84375 
L 412.48192 14.599219 
" clip-path="url(#pd2ff043297)" style="fill: none; stroke: #b0b0b0; stroke-width: 0.8; stroke-linecap: square"/>
     </g>
     <g id="line2d_12">
      <g>
       <use xlink:href="#m77eb35f2d2" x="412.48192" y="390.84375" style="stroke: #000000; stroke-width: 0.8"/>
      </g>
     </g>
     <g id="text_6">
      <!-- 8.5 -->
      <g transform="translate(404.530357 405.442187) scale(0.1 -0.1)">
       <use xlink:href="#DejaVuSans-38"/>
       <use xlink:href="#DejaVuSans-2e" x="63.623047"/>
       <use xlink:href="#DejaVuSans-35" x="95.410156"/>
      </g>
     </g>
    </g>
    <g id="xtick_7">
     <g id="line2d_13">
      <path d="M 484.865179 390.84375 
L 484.865179 14.599219 
" clip-path="url(#pd2ff043297)" style="fill: none; stroke: #b0b0b0; stroke-width: 0.8; stroke-linecap: square"/>
     </g>
     <g id="line2d_14">
      <g>
       <use xlink:href="#m77eb35f2d2" x="484.865179" y="390.84375" style="stroke: #000000; stroke-width: 0.8"/>
      </g>
     </g>
     <g id="text_7">
      <!-- 9.0 -->
      <g transform="translate(476.913616 405.442187) scale(0.1 -0.1)">
       <defs>
        <path id="DejaVuSans-39" d="M 703 97 
L 703 672 
Q 941 559 1184 500 
Q 1428 441 1663 441 
Q 2288 441 2617 861 
Q 2947 1281 2994 2138 
Q 2813 1869 2534 1725 
Q 2256 1581 1919 1581 
Q 1219 1581 811 2004 
Q 403 2428 403 3163 
Q 403 3881 828 4315 
Q 1253 4750 1959 4750 
Q 2769 4750 3195 4129 
Q 3622 3509 3622 2328 
Q 3622 1225 3098 567 
Q 2575 -91 1691 -91 
Q 1453 -91 1209 -44 
Q 966 3 703 97 
z
M 1959 2075 
Q 2384 2075 2632 2365 
Q 2881 2656 2881 3163 
Q 2881 3666 2632 3958 
Q 2384 4250 1959 4250 
Q 1534 4250 1286 3958 
Q 1038 3666 1038 3163 
Q 1038 2656 1286 2365 
Q 1534 2075 1959 2075 
z
" transform="scale(0.015625)"/>
       </defs>
       <use xlink:href="#DejaVuSans-39"/>
       <use xlink:href="#DejaVuSans-2e" x="63.623047"/>
       <use xlink:href="#DejaVuSans-30" x="95.410156"/>
      </g>
     </g>
    </g>
    <g id="xtick_8">
     <g id="line2d_15">
      <path d="M 557.248437 390.84375 
L 557.248437 14.599219 
" clip-path="url(#pd2ff043297)" style="fill: none; stroke: #b0b0b0; stroke-width: 0.8; stroke-linecap: square"/>
     </g>
     <g id="line2d_16">
      <g>
       <use xlink:href="#m77eb35f2d2" x="557.248437" y="390.84375" style="stroke: #000000; stroke-width: 0.8"/>
      </g>
     </g>
     <g id="text_8">
      <!-- 9.5 -->
      <g transform="translate(549.296875 405.442187) scale(0.1 -0.1)">
       <use xlink:href="#DejaVuSans-39"/>
       <use xlink:href="#DejaVuSans-2e" x="63.623047"/>
       <use xlink:href="#DejaVuSans-35" x="95.410156"/>
      </g>
     </g>
    </g>
    <g id="text_9">
     <!-- LGS Magnitude -->
     <g transform="translate(265.99375 419.120313) scale(0.1 -0.1)">
      <defs>
       <path id="DejaVuSans-4c" d="M 628 4666 
L 1259 4666 
L 1259 531 
L 3531 531 
L 3531 0 
L 628 0 
L 628 4666 
z
" transform="scale(0.015625)"/>
       <path id="DejaVuSans-47" d="M 3809 666 
L 3809 1919 
L 2778 1919 
L 2778 2438 
L 4434 2438 
L 4434 434 
Q 4069 175 3628 42 
Q 3188 -91 2688 -91 
Q 1594 -91 976 548 
Q 359 1188 359 2328 
Q 359 3472 976 4111 
Q 1594 4750 2688 4750 
Q 3144 4750 3555 4637 
Q 3966 4525 4313 4306 
L 4313 3634 
Q 3963 3931 3569 4081 
Q 3175 4231 2741 4231 
Q 1884 4231 1454 3753 
Q 1025 3275 1025 2328 
Q 1025 1384 1454 906 
Q 1884 428 2741 428 
Q 3075 428 3337 486 
Q 3600 544 3809 666 
z
" transform="scale(0.015625)"/>
       <path id="DejaVuSans-53" d="M 3425 4513 
L 3425 3897 
Q 3066 4069 2747 4153 
Q 2428 4238 2131 4238 
Q 1616 4238 1336 4038 
Q 1056 3838 1056 3469 
Q 1056 3159 1242 3001 
Q 1428 2844 1947 2747 
L 2328 2669 
Q 3034 2534 3370 2195 
Q 3706 1856 3706 1288 
Q 3706 609 3251 259 
Q 2797 -91 1919 -91 
Q 1588 -91 1214 -16 
Q 841 59 441 206 
L 441 856 
Q 825 641 1194 531 
Q 1563 422 1919 422 
Q 2459 422 2753 634 
Q 3047 847 3047 1241 
Q 3047 1584 2836 1778 
Q 2625 1972 2144 2069 
L 1759 2144 
Q 1053 2284 737 2584 
Q 422 2884 422 3419 
Q 422 4038 858 4394 
Q 1294 4750 2059 4750 
Q 2388 4750 2728 4690 
Q 3069 4631 3425 4513 
z
" transform="scale(0.015625)"/>
       <path id="DejaVuSans-20" transform="scale(0.015625)"/>
       <path id="DejaVuSans-4d" d="M 628 4666 
L 1569 4666 
L 2759 1491 
L 3956 4666 
L 4897 4666 
L 4897 0 
L 4281 0 
L 4281 4097 
L 3078 897 
L 2444 897 
L 1241 4097 
L 1241 0 
L 628 0 
L 628 4666 
z
" transform="scale(0.015625)"/>
       <path id="DejaVuSans-61" d="M 2194 1759 
Q 1497 1759 1228 1600 
Q 959 1441 959 1056 
Q 959 750 1161 570 
Q 1363 391 1709 391 
Q 2188 391 2477 730 
Q 2766 1069 2766 1631 
L 2766 1759 
L 2194 1759 
z
M 3341 1997 
L 3341 0 
L 2766 0 
L 2766 531 
Q 2569 213 2275 61 
Q 1981 -91 1556 -91 
Q 1019 -91 701 211 
Q 384 513 384 1019 
Q 384 1609 779 1909 
Q 1175 2209 1959 2209 
L 2766 2209 
L 2766 2266 
Q 2766 2663 2505 2880 
Q 2244 3097 1772 3097 
Q 1472 3097 1187 3025 
Q 903 2953 641 2809 
L 641 3341 
Q 956 3463 1253 3523 
Q 1550 3584 1831 3584 
Q 2591 3584 2966 3190 
Q 3341 2797 3341 1997 
z
" transform="scale(0.015625)"/>
       <path id="DejaVuSans-67" d="M 2906 1791 
Q 2906 2416 2648 2759 
Q 2391 3103 1925 3103 
Q 1463 3103 1205 2759 
Q 947 2416 947 1791 
Q 947 1169 1205 825 
Q 1463 481 1925 481 
Q 2391 481 2648 825 
Q 2906 1169 2906 1791 
z
M 3481 434 
Q 3481 -459 3084 -895 
Q 2688 -1331 1869 -1331 
Q 1566 -1331 1297 -1286 
Q 1028 -1241 775 -1147 
L 775 -588 
Q 1028 -725 1275 -790 
Q 1522 -856 1778 -856 
Q 2344 -856 2625 -561 
Q 2906 -266 2906 331 
L 2906 616 
Q 2728 306 2450 153 
Q 2172 0 1784 0 
Q 1141 0 747 490 
Q 353 981 353 1791 
Q 353 2603 747 3093 
Q 1141 3584 1784 3584 
Q 2172 3584 2450 3431 
Q 2728 3278 2906 2969 
L 2906 3500 
L 3481 3500 
L 3481 434 
z
" transform="scale(0.015625)"/>
       <path id="DejaVuSans-6e" d="M 3513 2113 
L 3513 0 
L 2938 0 
L 2938 2094 
Q 2938 2591 2744 2837 
Q 2550 3084 2163 3084 
Q 1697 3084 1428 2787 
Q 1159 2491 1159 1978 
L 1159 0 
L 581 0 
L 581 3500 
L 1159 3500 
L 1159 2956 
Q 1366 3272 1645 3428 
Q 1925 3584 2291 3584 
Q 2894 3584 3203 3211 
Q 3513 2838 3513 2113 
z
" transform="scale(0.015625)"/>
       <path id="DejaVuSans-69" d="M 603 3500 
L 1178 3500 
L 1178 0 
L 603 0 
L 603 3500 
z
M 603 4863 
L 1178 4863 
L 1178 4134 
L 603 4134 
L 603 4863 
z
" transform="scale(0.015625)"/>
       <path id="DejaVuSans-74" d="M 1172 4494 
L 1172 3500 
L 2356 3500 
L 2356 3053 
L 1172 3053 
L 1172 1153 
Q 1172 725 1289 603 
Q 1406 481 1766 481 
L 2356 481 
L 2356 0 
L 1766 0 
Q 1100 0 847 248 
Q 594 497 594 1153 
L 594 3053 
L 172 3053 
L 172 3500 
L 594 3500 
L 594 4494 
L 1172 4494 
z
" transform="scale(0.015625)"/>
       <path id="DejaVuSans-75" d="M 544 1381 
L 544 3500 
L 1119 3500 
L 1119 1403 
Q 1119 906 1312 657 
Q 1506 409 1894 409 
Q 2359 409 2629 706 
Q 2900 1003 2900 1516 
L 2900 3500 
L 3475 3500 
L 3475 0 
L 2900 0 
L 2900 538 
Q 2691 219 2414 64 
Q 2138 -91 1772 -91 
Q 1169 -91 856 284 
Q 544 659 544 1381 
z
M 1991 3584 
L 1991 3584 
z
" transform="scale(0.015625)"/>
       <path id="DejaVuSans-64" d="M 2906 2969 
L 2906 4863 
L 3481 4863 
L 3481 0 
L 2906 0 
L 2906 525 
Q 2725 213 2448 61 
Q 2172 -91 1784 -91 
Q 1150 -91 751 415 
Q 353 922 353 1747 
Q 353 2572 751 3078 
Q 1150 3584 1784 3584 
Q 2172 3584 2448 3432 
Q 2725 3281 2906 2969 
z
M 947 1747 
Q 947 1113 1208 752 
Q 1469 391 1925 391 
Q 2381 391 2643 752 
Q 2906 1113 2906 1747 
Q 2906 2381 2643 2742 
Q 2381 3103 1925 3103 
Q 1469 3103 1208 2742 
Q 947 2381 947 1747 
z
" transform="scale(0.015625)"/>
       <path id="DejaVuSans-65" d="M 3597 1894 
L 3597 1613 
L 953 1613 
Q 991 1019 1311 708 
Q 1631 397 2203 397 
Q 2534 397 2845 478 
Q 3156 559 3463 722 
L 3463 178 
Q 3153 47 2828 -22 
Q 2503 -91 2169 -91 
Q 1331 -91 842 396 
Q 353 884 353 1716 
Q 353 2575 817 3079 
Q 1281 3584 2069 3584 
Q 2775 3584 3186 3129 
Q 3597 2675 3597 1894 
z
M 3022 2063 
Q 3016 2534 2758 2815 
Q 2500 3097 2075 3097 
Q 1594 3097 1305 2825 
Q 1016 2553 972 2059 
L 3022 2063 
z
" transform="scale(0.015625)"/>
      </defs>
      <use xlink:href="#DejaVuSans-4c"/>
      <use xlink:href="#DejaVuSans-47" x="55.712891"/>
      <use xlink:href="#DejaVuSans-53" x="133.203125"/>
      <use xlink:href="#DejaVuSans-20" x="196.679688"/>
      <use xlink:href="#DejaVuSans-4d" x="228.466797"/>
      <use xlink:href="#DejaVuSans-61" x="314.746094"/>
      <use xlink:href="#DejaVuSans-67" x="376.025391"/>
      <use xlink:href="#DejaVuSans-6e" x="439.501953"/>
      <use xlink:href="#DejaVuSans-69" x="502.880859"/>
      <use xlink:href="#DejaVuSans-74" x="530.664062"/>
      <use xlink:href="#DejaVuSans-75" x="569.873047"/>
      <use xlink:href="#DejaVuSans-64" x="633.251953"/>
      <use xlink:href="#DejaVuSans-65" x="696.728516"/>
     </g>
    </g>
   </g>
   <g id="matplotlib.axis_2">
    <g id="ytick_1">
     <g id="line2d_17">
      <path d="M 50.565625 390.84375 
L 557.248437 390.84375 
" clip-path="url(#pd2ff043297)" style="fill: none; stroke: #b0b0b0; stroke-width: 0.8; stroke-linecap: square"/>
     </g>
     <g id="line2d_18">
      <defs>
       <path id="m8371ed3816" d="M 0 0 
L -3.5 0 
" style="stroke: #000000; stroke-width: 0.8"/>
      </defs>
      <g>
       <use xlink:href="#m8371ed3816" x="50.565625" y="390.84375" style="stroke: #000000; stroke-width: 0.8"/>
      </g>
     </g>
     <g id="text_10">
      <!-- 110 -->
      <g transform="translate(24.478125 394.642969) scale(0.1 -0.1)">
       <defs>
        <path id="DejaVuSans-31" d="M 794 531 
L 1825 531 
L 1825 4091 
L 703 3866 
L 703 4441 
L 1819 4666 
L 2450 4666 
L 2450 531 
L 3481 531 
L 3481 0 
L 794 0 
L 794 531 
z
" transform="scale(0.015625)"/>
       </defs>
       <use xlink:href="#DejaVuSans-31"/>
       <use xlink:href="#DejaVuSans-31" x="63.623047"/>
       <use xlink:href="#DejaVuSans-30" x="127.246094"/>
      </g>
     </g>
    </g>
    <g id="ytick_2">
     <g id="line2d_19">
      <path d="M 50.565625 349.038802 
L 557.248437 349.038802 
" clip-path="url(#pd2ff043297)" style="fill: none; stroke: #b0b0b0; stroke-width: 0.8; stroke-linecap: square"/>
     </g>
     <g id="line2d_20">
      <g>
       <use xlink:href="#m8371ed3816" x="50.565625" y="349.038802" style="stroke: #000000; stroke-width: 0.8"/>
      </g>
     </g>
     <g id="text_11">
      <!-- 120 -->
      <g transform="translate(24.478125 352.838021) scale(0.1 -0.1)">
       <defs>
        <path id="DejaVuSans-32" d="M 1228 531 
L 3431 531 
L 3431 0 
L 469 0 
L 469 531 
Q 828 903 1448 1529 
Q 2069 2156 2228 2338 
Q 2531 2678 2651 2914 
Q 2772 3150 2772 3378 
Q 2772 3750 2511 3984 
Q 2250 4219 1831 4219 
Q 1534 4219 1204 4116 
Q 875 4013 500 3803 
L 500 4441 
Q 881 4594 1212 4672 
Q 1544 4750 1819 4750 
Q 2544 4750 2975 4387 
Q 3406 4025 3406 3419 
Q 3406 3131 3298 2873 
Q 3191 2616 2906 2266 
Q 2828 2175 2409 1742 
Q 1991 1309 1228 531 
z
" transform="scale(0.015625)"/>
       </defs>
       <use xlink:href="#DejaVuSans-31"/>
       <use xlink:href="#DejaVuSans-32" x="63.623047"/>
       <use xlink:href="#DejaVuSans-30" x="127.246094"/>
      </g>
     </g>
    </g>
    <g id="ytick_3">
     <g id="line2d_21">
      <path d="M 50.565625 307.233854 
L 557.248437 307.233854 
" clip-path="url(#pd2ff043297)" style="fill: none; stroke: #b0b0b0; stroke-width: 0.8; stroke-linecap: square"/>
     </g>
     <g id="line2d_22">
      <g>
       <use xlink:href="#m8371ed3816" x="50.565625" y="307.233854" style="stroke: #000000; stroke-width: 0.8"/>
      </g>
     </g>
     <g id="text_12">
      <!-- 130 -->
      <g transform="translate(24.478125 311.033073) scale(0.1 -0.1)">
       <defs>
        <path id="DejaVuSans-33" d="M 2597 2516 
Q 3050 2419 3304 2112 
Q 3559 1806 3559 1356 
Q 3559 666 3084 287 
Q 2609 -91 1734 -91 
Q 1441 -91 1130 -33 
Q 819 25 488 141 
L 488 750 
Q 750 597 1062 519 
Q 1375 441 1716 441 
Q 2309 441 2620 675 
Q 2931 909 2931 1356 
Q 2931 1769 2642 2001 
Q 2353 2234 1838 2234 
L 1294 2234 
L 1294 2753 
L 1863 2753 
Q 2328 2753 2575 2939 
Q 2822 3125 2822 3475 
Q 2822 3834 2567 4026 
Q 2313 4219 1838 4219 
Q 1578 4219 1281 4162 
Q 984 4106 628 3988 
L 628 4550 
Q 988 4650 1302 4700 
Q 1616 4750 1894 4750 
Q 2613 4750 3031 4423 
Q 3450 4097 3450 3541 
Q 3450 3153 3228 2886 
Q 3006 2619 2597 2516 
z
" transform="scale(0.015625)"/>
       </defs>
       <use xlink:href="#DejaVuSans-31"/>
       <use xlink:href="#DejaVuSans-33" x="63.623047"/>
       <use xlink:href="#DejaVuSans-30" x="127.246094"/>
      </g>
     </g>
    </g>
    <g id="ytick_4">
     <g id="line2d_23">
      <path d="M 50.565625 265.428906 
L 557.248437 265.428906 
" clip-path="url(#pd2ff043297)" style="fill: none; stroke: #b0b0b0; stroke-width: 0.8; stroke-linecap: square"/>
     </g>
     <g id="line2d_24">
      <g>
       <use xlink:href="#m8371ed3816" x="50.565625" y="265.428906" style="stroke: #000000; stroke-width: 0.8"/>
      </g>
     </g>
     <g id="text_13">
      <!-- 140 -->
      <g transform="translate(24.478125 269.228125) scale(0.1 -0.1)">
       <defs>
        <path id="DejaVuSans-34" d="M 2419 4116 
L 825 1625 
L 2419 1625 
L 2419 4116 
z
M 2253 4666 
L 3047 4666 
L 3047 1625 
L 3713 1625 
L 3713 1100 
L 3047 1100 
L 3047 0 
L 2419 0 
L 2419 1100 
L 313 1100 
L 313 1709 
L 2253 4666 
z
" transform="scale(0.015625)"/>
       </defs>
       <use xlink:href="#DejaVuSans-31"/>
       <use xlink:href="#DejaVuSans-34" x="63.623047"/>
       <use xlink:href="#DejaVuSans-30" x="127.246094"/>
      </g>
     </g>
    </g>
    <g id="ytick_5">
     <g id="line2d_25">
      <path d="M 50.565625 223.623958 
L 557.248437 223.623958 
" clip-path="url(#pd2ff043297)" style="fill: none; stroke: #b0b0b0; stroke-width: 0.8; stroke-linecap: square"/>
     </g>
     <g id="line2d_26">
      <g>
       <use xlink:href="#m8371ed3816" x="50.565625" y="223.623958" style="stroke: #000000; stroke-width: 0.8"/>
      </g>
     </g>
     <g id="text_14">
      <!-- 150 -->
      <g transform="translate(24.478125 227.423177) scale(0.1 -0.1)">
       <use xlink:href="#DejaVuSans-31"/>
       <use xlink:href="#DejaVuSans-35" x="63.623047"/>
       <use xlink:href="#DejaVuSans-30" x="127.246094"/>
      </g>
     </g>
    </g>
    <g id="ytick_6">
     <g id="line2d_27">
      <path d="M 50.565625 181.81901 
L 557.248437 181.81901 
" clip-path="url(#pd2ff043297)" style="fill: none; stroke: #b0b0b0; stroke-width: 0.8; stroke-linecap: square"/>
     </g>
     <g id="line2d_28">
      <g>
       <use xlink:href="#m8371ed3816" x="50.565625" y="181.81901" style="stroke: #000000; stroke-width: 0.8"/>
      </g>
     </g>
     <g id="text_15">
      <!-- 160 -->
      <g transform="translate(24.478125 185.618229) scale(0.1 -0.1)">
       <use xlink:href="#DejaVuSans-31"/>
       <use xlink:href="#DejaVuSans-36" x="63.623047"/>
       <use xlink:href="#DejaVuSans-30" x="127.246094"/>
      </g>
     </g>
    </g>
    <g id="ytick_7">
     <g id="line2d_29">
      <path d="M 50.565625 140.014063 
L 557.248437 140.014063 
" clip-path="url(#pd2ff043297)" style="fill: none; stroke: #b0b0b0; stroke-width: 0.8; stroke-linecap: square"/>
     </g>
     <g id="line2d_30">
      <g>
       <use xlink:href="#m8371ed3816" x="50.565625" y="140.014063" style="stroke: #000000; stroke-width: 0.8"/>
      </g>
     </g>
     <g id="text_16">
      <!-- 170 -->
      <g transform="translate(24.478125 143.813281) scale(0.1 -0.1)">
       <use xlink:href="#DejaVuSans-31"/>
       <use xlink:href="#DejaVuSans-37" x="63.623047"/>
       <use xlink:href="#DejaVuSans-30" x="127.246094"/>
      </g>
     </g>
    </g>
    <g id="ytick_8">
     <g id="line2d_31">
      <path d="M 50.565625 98.209115 
L 557.248437 98.209115 
" clip-path="url(#pd2ff043297)" style="fill: none; stroke: #b0b0b0; stroke-width: 0.8; stroke-linecap: square"/>
     </g>
     <g id="line2d_32">
      <g>
       <use xlink:href="#m8371ed3816" x="50.565625" y="98.209115" style="stroke: #000000; stroke-width: 0.8"/>
      </g>
     </g>
     <g id="text_17">
      <!-- 180 -->
      <g transform="translate(24.478125 102.008333) scale(0.1 -0.1)">
       <use xlink:href="#DejaVuSans-31"/>
       <use xlink:href="#DejaVuSans-38" x="63.623047"/>
       <use xlink:href="#DejaVuSans-30" x="127.246094"/>
      </g>
     </g>
    </g>
    <g id="ytick_9">
     <g id="line2d_33">
      <path d="M 50.565625 56.404167 
L 557.248437 56.404167 
" clip-path="url(#pd2ff043297)" style="fill: none; stroke: #b0b0b0; stroke-width: 0.8; stroke-linecap: square"/>
     </g>
     <g id="line2d_34">
      <g>
       <use xlink:href="#m8371ed3816" x="50.565625" y="56.404167" style="stroke: #000000; stroke-width: 0.8"/>
      </g>
     </g>
     <g id="text_18">
      <!-- 190 -->
      <g transform="translate(24.478125 60.203385) scale(0.1 -0.1)">
       <use xlink:href="#DejaVuSans-31"/>
       <use xlink:href="#DejaVuSans-39" x="63.623047"/>
       <use xlink:href="#DejaVuSans-30" x="127.246094"/>
      </g>
     </g>
    </g>
    <g id="ytick_10">
     <g id="line2d_35">
      <path d="M 50.565625 14.599219 
L 557.248437 14.599219 
" clip-path="url(#pd2ff043297)" style="fill: none; stroke: #b0b0b0; stroke-width: 0.8; stroke-linecap: square"/>
     </g>
     <g id="line2d_36">
      <g>
       <use xlink:href="#m8371ed3816" x="50.565625" y="14.599219" style="stroke: #000000; stroke-width: 0.8"/>
      </g>
     </g>
     <g id="text_19">
      <!-- 200 -->
      <g transform="translate(24.478125 18.398438) scale(0.1 -0.1)">
       <use xlink:href="#DejaVuSans-32"/>
       <use xlink:href="#DejaVuSans-30" x="63.623047"/>
       <use xlink:href="#DejaVuSans-30" x="127.246094"/>
      </g>
     </g>
    </g>
    <g id="text_20">
     <!-- Fundamental WFE (nm) -->
     <g transform="translate(18.398438 261.524609) rotate(-90) scale(0.1 -0.1)">
      <defs>
       <path id="DejaVuSans-46" d="M 628 4666 
L 3309 4666 
L 3309 4134 
L 1259 4134 
L 1259 2759 
L 3109 2759 
L 3109 2228 
L 1259 2228 
L 1259 0 
L 628 0 
L 628 4666 
z
" transform="scale(0.015625)"/>
       <path id="DejaVuSans-6d" d="M 3328 2828 
Q 3544 3216 3844 3400 
Q 4144 3584 4550 3584 
Q 5097 3584 5394 3201 
Q 5691 2819 5691 2113 
L 5691 0 
L 5113 0 
L 5113 2094 
Q 5113 2597 4934 2840 
Q 4756 3084 4391 3084 
Q 3944 3084 3684 2787 
Q 3425 2491 3425 1978 
L 3425 0 
L 2847 0 
L 2847 2094 
Q 2847 2600 2669 2842 
Q 2491 3084 2119 3084 
Q 1678 3084 1418 2786 
Q 1159 2488 1159 1978 
L 1159 0 
L 581 0 
L 581 3500 
L 1159 3500 
L 1159 2956 
Q 1356 3278 1631 3431 
Q 1906 3584 2284 3584 
Q 2666 3584 2933 3390 
Q 3200 3197 3328 2828 
z
" transform="scale(0.015625)"/>
       <path id="DejaVuSans-6c" d="M 603 4863 
L 1178 4863 
L 1178 0 
L 603 0 
L 603 4863 
z
" transform="scale(0.015625)"/>
       <path id="DejaVuSans-57" d="M 213 4666 
L 850 4666 
L 1831 722 
L 2809 4666 
L 3519 4666 
L 4500 722 
L 5478 4666 
L 6119 4666 
L 4947 0 
L 4153 0 
L 3169 4050 
L 2175 0 
L 1381 0 
L 213 4666 
z
" transform="scale(0.015625)"/>
       <path id="DejaVuSans-45" d="M 628 4666 
L 3578 4666 
L 3578 4134 
L 1259 4134 
L 1259 2753 
L 3481 2753 
L 3481 2222 
L 1259 2222 
L 1259 531 
L 3634 531 
L 3634 0 
L 628 0 
L 628 4666 
z
" transform="scale(0.015625)"/>
       <path id="DejaVuSans-28" d="M 1984 4856 
Q 1566 4138 1362 3434 
Q 1159 2731 1159 2009 
Q 1159 1288 1364 580 
Q 1569 -128 1984 -844 
L 1484 -844 
Q 1016 -109 783 600 
Q 550 1309 550 2009 
Q 550 2706 781 3412 
Q 1013 4119 1484 4856 
L 1984 4856 
z
" transform="scale(0.015625)"/>
       <path id="DejaVuSans-29" d="M 513 4856 
L 1013 4856 
Q 1481 4119 1714 3412 
Q 1947 2706 1947 2009 
Q 1947 1309 1714 600 
Q 1481 -109 1013 -844 
L 513 -844 
Q 928 -128 1133 580 
Q 1338 1288 1338 2009 
Q 1338 2731 1133 3434 
Q 928 4138 513 4856 
z
" transform="scale(0.015625)"/>
      </defs>
      <use xlink:href="#DejaVuSans-46"/>
      <use xlink:href="#DejaVuSans-75" x="52.019531"/>
      <use xlink:href="#DejaVuSans-6e" x="115.398438"/>
      <use xlink:href="#DejaVuSans-64" x="178.777344"/>
      <use xlink:href="#DejaVuSans-61" x="242.253906"/>
      <use xlink:href="#DejaVuSans-6d" x="303.533203"/>
      <use xlink:href="#DejaVuSans-65" x="400.945312"/>
      <use xlink:href="#DejaVuSans-6e" x="462.46875"/>
      <use xlink:href="#DejaVuSans-74" x="525.847656"/>
      <use xlink:href="#DejaVuSans-61" x="565.056641"/>
      <use xlink:href="#DejaVuSans-6c" x="626.335938"/>
      <use xlink:href="#DejaVuSans-20" x="654.119141"/>
      <use xlink:href="#DejaVuSans-57" x="685.90625"/>
      <use xlink:href="#DejaVuSans-46" x="784.783203"/>
      <use xlink:href="#DejaVuSans-45" x="842.302734"/>
      <use xlink:href="#DejaVuSans-20" x="905.486328"/>
      <use xlink:href="#DejaVuSans-28" x="937.273438"/>
      <use xlink:href="#DejaVuSans-6e" x="976.287109"/>
      <use xlink:href="#DejaVuSans-6d" x="1039.666016"/>
      <use xlink:href="#DejaVuSans-29" x="1137.078125"/>
     </g>
    </g>
   </g>
   <g id="line2d_37">
    <path d="M -1 375.311077 
L 14.209596 374.047874 
L 26.235329 372.865913 
L 38.261061 371.508454 
L 54.295372 369.43231 
L 70.329682 367.083053 
L 86.363992 364.495033 
L 102.398303 361.702598 
L 122.441191 357.976924 
L 146.492656 353.245002 
L 158.518389 350.715169 
L 170.544121 347.914221 
L 178.561277 345.827077 
L 186.578432 343.515597 
L 194.595587 340.938243 
L 202.612742 338.053481 
L 210.629897 334.819773 
L 218.647052 331.195584 
L 226.664207 327.139375 
L 234.681363 322.609612 
L 238.68994 320.154167 
L 242.698518 317.564757 
L 246.707095 314.83619 
L 250.715673 311.963509 
L 254.72425 308.946348 
L 262.741406 302.493992 
L 270.758561 295.5107 
L 278.775716 288.028203 
L 286.792871 280.078233 
L 294.810026 271.69252 
L 302.827181 262.902796 
L 310.844336 253.740792 
L 318.861492 244.238239 
L 326.878647 234.426868 
L 334.895802 224.33841 
L 346.921535 208.755597 
L 358.947267 192.727782 
L 370.973 176.325379 
L 382.998733 159.51585 
L 395.024465 142.2487 
L 407.050198 124.473435 
L 419.075931 106.13956 
L 427.093086 93.581703 
L 435.110241 80.738172 
L 443.127396 67.594005 
L 451.144552 54.134243 
L 459.161707 40.343922 
L 467.178862 26.208082 
L 475.196017 11.711762 
L 482.056195 -1 
L 482.056195 -1 
" clip-path="url(#pd2ff043297)" style="fill: none; stroke: #0000ff; stroke-linecap: square"/>
   </g>
   <g id="line2d_38">
    <path d="M -1 375.589485 
L 26.235329 374.024116 
L 50.286794 372.443625 
L 70.329682 370.913748 
L 86.363992 369.495842 
L 102.398303 367.863282 
L 118.432613 365.97711 
L 130.458346 364.372614 
L 142.484078 362.587118 
L 154.509811 360.605125 
L 166.535544 358.413005 
L 178.561277 355.99735 
L 190.587009 353.344754 
L 202.612742 350.441809 
L 214.638475 347.275106 
L 226.664207 343.831241 
L 238.68994 340.096804 
L 250.715673 336.058304 
L 258.732828 333.181606 
L 266.749983 330.126259 
L 274.767138 326.861775 
L 282.784293 323.357669 
L 290.801449 319.583455 
L 298.818604 315.508647 
L 306.835759 311.102759 
L 314.852914 306.335306 
L 322.870069 301.175802 
L 330.887224 295.593761 
L 338.904379 289.558696 
L 346.921535 283.040123 
L 354.93869 276.007555 
L 362.955845 268.433261 
L 370.973 260.320179 
L 378.990155 251.690412 
L 387.00731 242.566353 
L 395.024465 232.970398 
L 403.041621 222.92494 
L 411.058776 212.452375 
L 419.075931 201.575096 
L 427.093086 190.315498 
L 435.110241 178.695975 
L 443.127396 166.738922 
L 451.144552 154.466734 
L 459.161707 141.901805 
L 471.187439 122.554508 
L 483.213172 102.674513 
L 495.238905 82.3374 
L 507.264638 61.61875 
L 523.298948 33.531017 
L 542.741537 -1 
L 542.741537 -1 
" clip-path="url(#pd2ff043297)" style="fill: none; stroke: #008000; stroke-linecap: square"/>
   </g>
   <g id="line2d_39">
    <path d="M -1 374.341503 
L 22.226751 373.618307 
L 46.278217 373.125598 
L 86.363992 372.398655 
L 102.398303 371.884915 
L 114.424035 371.333911 
L 126.449768 370.599492 
L 138.475501 369.644408 
L 150.501234 368.439871 
L 162.526966 367.002192 
L 174.552699 365.362646 
L 190.587009 362.916642 
L 206.62132 360.241537 
L 230.672785 355.961532 
L 270.758561 348.57632 
L 282.784293 346.109467 
L 290.801449 344.297028 
L 298.818604 342.309313 
L 306.835759 340.111196 
L 314.852914 337.667553 
L 322.870069 334.943258 
L 330.887224 331.903185 
L 338.904379 328.512209 
L 346.921535 324.735206 
L 354.93869 320.537049 
L 362.955845 315.88569 
L 370.973 310.783338 
L 378.990155 305.25361 
L 387.00731 299.320447 
L 395.024465 293.007791 
L 403.041621 286.339584 
L 411.058776 279.339768 
L 419.075931 272.032284 
L 427.093086 264.441076 
L 435.110241 256.590085 
L 443.127396 248.503252 
L 455.153129 235.983175 
L 467.178862 223.067129 
L 479.204595 209.835919 
L 495.238905 191.843711 
L 551.358991 128.355242 
L 563.384724 115.180399 
L 575.410456 102.336826 
L 575.410456 102.336826 
" clip-path="url(#pd2ff043297)" style="fill: none; stroke: #ff0000; stroke-linecap: square"/>
   </g>
   <g id="line2d_40">
    <path d="M -1 299.196488 
L 7.624573 298.204688 
L 19.650306 297.066347 
L 31.676039 296.178473 
L 43.701771 295.507074 
L 59.736082 294.889868 
L 75.770392 294.516511 
L 99.821857 294.237447 
L 139.907633 293.850179 
L 155.941943 293.48752 
L 171.976254 292.885292 
L 184.001986 292.227935 
L 196.027719 291.35651 
L 208.053452 290.237025 
L 220.079185 288.83549 
L 232.104917 287.117915 
L 240.122072 285.780502 
L 248.139228 284.277448 
L 256.156383 282.600726 
L 264.173538 280.751899 
L 272.190693 278.735347 
L 280.207848 276.555448 
L 288.225003 274.216581 
L 300.250736 270.419794 
L 312.276469 266.289961 
L 324.302201 261.84186 
L 336.327934 257.09027 
L 348.353667 252.04997 
L 360.3794 246.735546 
L 372.405132 241.135397 
L 380.422287 237.21194 
L 388.439443 233.11212 
L 396.456598 228.815069 
L 404.473753 224.299922 
L 412.490908 219.545814 
L 420.508063 214.531877 
L 428.525218 209.237245 
L 436.542373 203.641053 
L 444.559529 197.722435 
L 452.576684 191.460523 
L 460.593839 184.834452 
L 468.610994 177.823415 
L 476.628149 170.412593 
L 484.645304 162.598246 
L 492.66246 154.37783 
L 500.679615 145.7488 
L 508.69677 136.708612 
L 516.713925 127.254724 
L 524.73108 117.38459 
L 532.748235 107.095668 
L 540.76539 96.385413 
L 548.782546 85.251282 
L 556.799701 73.69073 
L 564.816856 61.701214 
L 572.834011 49.280191 
L 577 42.652505 
L 577 42.652505 
" clip-path="url(#pd2ff043297)" style="fill: none; stroke-dasharray: 6,4; stroke-dashoffset: 0; stroke: #0000ff"/>
   </g>
   <g id="line2d_41">
    <path d="M -1 302.180188 
L 11.633151 301.393257 
L 27.667461 300.572345 
L 47.710349 299.770403 
L 71.761814 299.039565 
L 151.933366 296.842494 
L 171.976254 295.969724 
L 188.010564 295.075699 
L 204.044874 293.966723 
L 220.079185 292.605045 
L 232.104917 291.395238 
L 244.13065 290.006123 
L 256.156383 288.421833 
L 268.182115 286.627287 
L 280.207848 284.607965 
L 292.233581 282.349358 
L 304.259314 279.836959 
L 316.285046 277.056258 
L 328.310779 273.992746 
L 340.336512 270.631916 
L 352.362244 266.959257 
L 364.387977 262.960316 
L 376.41371 258.621536 
L 384.430865 255.533887 
L 392.44802 252.285714 
L 400.465175 248.873229 
L 408.48233 245.29264 
L 416.499486 241.54016 
L 424.516641 237.611998 
L 432.533796 233.504365 
L 440.550951 229.213471 
L 448.568106 224.735527 
L 456.585261 220.066744 
L 464.602416 215.203331 
L 472.619572 210.140353 
L 480.636727 204.863462 
L 488.653882 199.3537 
L 496.671037 193.592077 
L 504.688192 187.559604 
L 512.705347 181.237291 
L 520.722503 174.606148 
L 528.739658 167.647185 
L 536.756813 160.341412 
L 544.773968 152.669841 
L 552.791123 144.61348 
L 560.808278 136.153341 
L 568.825433 127.270433 
L 577 117.755996 
L 577 117.755996 
" clip-path="url(#pd2ff043297)" style="fill: none; stroke-dasharray: 6,4; stroke-dashoffset: 0; stroke: #008000"/>
   </g>
   <g id="line2d_42">
    <path d="M -1 303.854231 
L 27.667461 302.823434 
L 83.787547 301.065646 
L 127.8819 299.596311 
L 155.941943 298.470678 
L 179.993409 297.318132 
L 204.044874 295.941352 
L 224.087762 294.587921 
L 244.13065 293.017314 
L 264.173538 291.195834 
L 280.207848 289.505753 
L 296.242158 287.552634 
L 308.267891 285.884018 
L 320.293624 284.016457 
L 332.319357 281.928098 
L 344.345089 279.597091 
L 356.370822 277.001584 
L 368.396555 274.124262 
L 380.422287 270.971994 
L 392.44802 267.559668 
L 404.473753 263.90218 
L 416.499486 260.014425 
L 428.525218 255.9113 
L 440.550951 251.607699 
L 456.585261 245.583458 
L 472.619572 239.262971 
L 484.645304 234.311286 
L 496.671037 229.118199 
L 508.69677 223.625561 
L 516.713925 219.768671 
L 524.73108 215.735574 
L 532.748235 211.509041 
L 540.76539 207.071845 
L 548.782546 202.406755 
L 556.799701 197.496544 
L 564.816856 192.323981 
L 572.834011 186.871837 
L 577 183.921204 
L 577 183.921204 
" clip-path="url(#pd2ff043297)" style="fill: none; stroke-dasharray: 6,4; stroke-dashoffset: 0; stroke: #ff0000"/>
   </g>
   <g id="patch_3">
    <path d="M 50.565625 390.84375 
L 50.565625 14.599219 
" style="fill: none; stroke: #000000; stroke-width: 0.8; stroke-linejoin: miter; stroke-linecap: square"/>
   </g>
   <g id="patch_4">
    <path d="M 557.248437 390.84375 
L 557.248437 14.599219 
" style="fill: none; stroke: #000000; stroke-width: 0.8; stroke-linejoin: miter; stroke-linecap: square"/>
   </g>
   <g id="patch_5">
    <path d="M 50.565625 390.84375 
L 557.248437 390.84375 
" style="fill: none; stroke: #000000; stroke-width: 0.8; stroke-linejoin: miter; stroke-linecap: square"/>
   </g>
   <g id="patch_6">
    <path d="M 50.565625 14.599219 
L 557.248437 14.599219 
" style="fill: none; stroke: #000000; stroke-width: 0.8; stroke-linejoin: miter; stroke-linecap: square"/>
   </g>
   <g id="legend_1">
    <g id="patch_7">
     <path d="M 57.565625 110.667969 
L 184.065625 110.667969 
Q 186.065625 110.667969 186.065625 108.667969 
L 186.065625 21.599219 
Q 186.065625 19.599219 184.065625 19.599219 
L 57.565625 19.599219 
Q 55.565625 19.599219 55.565625 21.599219 
L 55.565625 108.667969 
Q 55.565625 110.667969 57.565625 110.667969 
z
" style="fill: #ffffff; opacity: 0.8; stroke: #cccccc; stroke-linejoin: miter"/>
    </g>
    <g id="line2d_43">
     <path d="M 59.565625 27.697656 
L 69.565625 27.697656 
L 79.565625 27.697656 
" style="fill: none; stroke: #0000ff; stroke-linecap: square"/>
    </g>
    <g id="text_21">
     <!-- ron=3$e$ $d_{sa}$=0.25m -->
     <g transform="translate(87.565625 31.197656) scale(0.1 -0.1)">
      <defs>
       <path id="DejaVuSans-72" d="M 2631 2963 
Q 2534 3019 2420 3045 
Q 2306 3072 2169 3072 
Q 1681 3072 1420 2755 
Q 1159 2438 1159 1844 
L 1159 0 
L 581 0 
L 581 3500 
L 1159 3500 
L 1159 2956 
Q 1341 3275 1631 3429 
Q 1922 3584 2338 3584 
Q 2397 3584 2469 3576 
Q 2541 3569 2628 3553 
L 2631 2963 
z
" transform="scale(0.015625)"/>
       <path id="DejaVuSans-6f" d="M 1959 3097 
Q 1497 3097 1228 2736 
Q 959 2375 959 1747 
Q 959 1119 1226 758 
Q 1494 397 1959 397 
Q 2419 397 2687 759 
Q 2956 1122 2956 1747 
Q 2956 2369 2687 2733 
Q 2419 3097 1959 3097 
z
M 1959 3584 
Q 2709 3584 3137 3096 
Q 3566 2609 3566 1747 
Q 3566 888 3137 398 
Q 2709 -91 1959 -91 
Q 1206 -91 779 398 
Q 353 888 353 1747 
Q 353 2609 779 3096 
Q 1206 3584 1959 3584 
z
" transform="scale(0.015625)"/>
       <path id="DejaVuSans-3d" d="M 678 2906 
L 4684 2906 
L 4684 2381 
L 678 2381 
L 678 2906 
z
M 678 1631 
L 4684 1631 
L 4684 1100 
L 678 1100 
L 678 1631 
z
" transform="scale(0.015625)"/>
       <path id="DejaVuSans-Oblique-65" d="M 3078 2063 
Q 3088 2113 3092 2166 
Q 3097 2219 3097 2272 
Q 3097 2653 2873 2875 
Q 2650 3097 2266 3097 
Q 1838 3097 1509 2826 
Q 1181 2556 1013 2059 
L 3078 2063 
z
M 3578 1613 
L 903 1613 
Q 884 1494 878 1425 
Q 872 1356 872 1306 
Q 872 872 1139 634 
Q 1406 397 1894 397 
Q 2269 397 2603 481 
Q 2938 566 3225 728 
L 3116 159 
Q 2806 34 2476 -28 
Q 2147 -91 1806 -91 
Q 1078 -91 686 257 
Q 294 606 294 1247 
Q 294 1794 489 2264 
Q 684 2734 1063 3103 
Q 1306 3334 1642 3459 
Q 1978 3584 2356 3584 
Q 2950 3584 3301 3228 
Q 3653 2872 3653 2272 
Q 3653 2128 3634 1964 
Q 3616 1800 3578 1613 
z
" transform="scale(0.015625)"/>
       <path id="DejaVuSans-Oblique-64" d="M 2675 525 
Q 2444 222 2128 65 
Q 1813 -91 1428 -91 
Q 903 -91 598 267 
Q 294 625 294 1247 
Q 294 1766 478 2236 
Q 663 2706 1013 3078 
Q 1244 3325 1534 3454 
Q 1825 3584 2144 3584 
Q 2481 3584 2739 3421 
Q 2997 3259 3138 2956 
L 3513 4863 
L 4091 4863 
L 3144 0 
L 2566 0 
L 2675 525 
z
M 891 1350 
Q 891 897 1095 644 
Q 1300 391 1663 391 
Q 1931 391 2161 520 
Q 2391 650 2566 903 
Q 2750 1166 2856 1509 
Q 2963 1853 2963 2188 
Q 2963 2622 2758 2865 
Q 2553 3109 2194 3109 
Q 1922 3109 1687 2981 
Q 1453 2853 1288 2613 
Q 1106 2353 998 2009 
Q 891 1666 891 1350 
z
" transform="scale(0.015625)"/>
       <path id="DejaVuSans-Oblique-73" d="M 3200 3397 
L 3091 2853 
Q 2863 2978 2609 3040 
Q 2356 3103 2088 3103 
Q 1634 3103 1373 2948 
Q 1113 2794 1113 2528 
Q 1113 2219 1719 2053 
Q 1766 2041 1788 2034 
L 1972 1978 
Q 2547 1819 2739 1644 
Q 2931 1469 2931 1166 
Q 2931 609 2489 259 
Q 2047 -91 1331 -91 
Q 1053 -91 747 -37 
Q 441 16 72 128 
L 184 722 
Q 500 559 806 475 
Q 1113 391 1394 391 
Q 1816 391 2080 572 
Q 2344 753 2344 1031 
Q 2344 1331 1650 1516 
L 1591 1531 
L 1394 1581 
Q 956 1697 753 1886 
Q 550 2075 550 2369 
Q 550 2928 970 3256 
Q 1391 3584 2113 3584 
Q 2397 3584 2667 3537 
Q 2938 3491 3200 3397 
z
" transform="scale(0.015625)"/>
       <path id="DejaVuSans-Oblique-61" d="M 3438 1997 
L 3047 0 
L 2472 0 
L 2578 531 
Q 2325 219 2001 64 
Q 1678 -91 1281 -91 
Q 834 -91 548 182 
Q 263 456 263 884 
Q 263 1497 752 1853 
Q 1241 2209 2100 2209 
L 2900 2209 
L 2931 2363 
Q 2938 2388 2941 2417 
Q 2944 2447 2944 2509 
Q 2944 2788 2717 2942 
Q 2491 3097 2081 3097 
Q 1800 3097 1504 3025 
Q 1209 2953 897 2809 
L 997 3341 
Q 1322 3463 1633 3523 
Q 1944 3584 2234 3584 
Q 2853 3584 3176 3315 
Q 3500 3047 3500 2534 
Q 3500 2431 3484 2292 
Q 3469 2153 3438 1997 
z
M 2816 1759 
L 2241 1759 
Q 1534 1759 1195 1570 
Q 856 1381 856 984 
Q 856 709 1029 553 
Q 1203 397 1509 397 
Q 1978 397 2328 733 
Q 2678 1069 2791 1631 
L 2816 1759 
z
" transform="scale(0.015625)"/>
      </defs>
      <use xlink:href="#DejaVuSans-72" transform="translate(0 0.015625)"/>
      <use xlink:href="#DejaVuSans-6f" transform="translate(41.113281 0.015625)"/>
      <use xlink:href="#DejaVuSans-6e" transform="translate(102.294922 0.015625)"/>
      <use xlink:href="#DejaVuSans-3d" transform="translate(165.673828 0.015625)"/>
      <use xlink:href="#DejaVuSans-33" transform="translate(249.462891 0.015625)"/>
      <use xlink:href="#DejaVuSans-Oblique-65" transform="translate(313.085938 0.015625)"/>
      <use xlink:href="#DejaVuSans-20" transform="translate(374.609375 0.015625)"/>
      <use xlink:href="#DejaVuSans-Oblique-64" transform="translate(406.396484 0.015625)"/>
      <use xlink:href="#DejaVuSans-Oblique-73" transform="translate(469.873047 -16.390625) scale(0.7)"/>
      <use xlink:href="#DejaVuSans-Oblique-61" transform="translate(506.342773 -16.390625) scale(0.7)"/>
      <use xlink:href="#DejaVuSans-3d" transform="translate(551.972656 0.015625)"/>
      <use xlink:href="#DejaVuSans-30" transform="translate(635.761719 0.015625)"/>
      <use xlink:href="#DejaVuSans-2e" transform="translate(699.384766 0.015625)"/>
      <use xlink:href="#DejaVuSans-32" transform="translate(725.671875 0.015625)"/>
      <use xlink:href="#DejaVuSans-35" transform="translate(789.294922 0.015625)"/>
      <use xlink:href="#DejaVuSans-6d" transform="translate(847.417969 0.015625)"/>
     </g>
    </g>
    <g id="line2d_44">
     <path d="M 59.565625 42.375781 
L 69.565625 42.375781 
L 79.565625 42.375781 
" style="fill: none; stroke: #008000; stroke-linecap: square"/>
    </g>
    <g id="text_22">
     <!-- ron=2$e$ $d_{sa}$=0.25m -->
     <g transform="translate(87.565625 45.875781) scale(0.1 -0.1)">
      <use xlink:href="#DejaVuSans-72" transform="translate(0 0.015625)"/>
      <use xlink:href="#DejaVuSans-6f" transform="translate(41.113281 0.015625)"/>
      <use xlink:href="#DejaVuSans-6e" transform="translate(102.294922 0.015625)"/>
      <use xlink:href="#DejaVuSans-3d" transform="translate(165.673828 0.015625)"/>
      <use xlink:href="#DejaVuSans-32" transform="translate(249.462891 0.015625)"/>
      <use xlink:href="#DejaVuSans-Oblique-65" transform="translate(313.085938 0.015625)"/>
      <use xlink:href="#DejaVuSans-20" transform="translate(374.609375 0.015625)"/>
      <use xlink:href="#DejaVuSans-Oblique-64" transform="translate(406.396484 0.015625)"/>
      <use xlink:href="#DejaVuSans-Oblique-73" transform="translate(469.873047 -16.390625) scale(0.7)"/>
      <use xlink:href="#DejaVuSans-Oblique-61" transform="translate(506.342773 -16.390625) scale(0.7)"/>
      <use xlink:href="#DejaVuSans-3d" transform="translate(551.972656 0.015625)"/>
      <use xlink:href="#DejaVuSans-30" transform="translate(635.761719 0.015625)"/>
      <use xlink:href="#DejaVuSans-2e" transform="translate(699.384766 0.015625)"/>
      <use xlink:href="#DejaVuSans-32" transform="translate(725.671875 0.015625)"/>
      <use xlink:href="#DejaVuSans-35" transform="translate(789.294922 0.015625)"/>
      <use xlink:href="#DejaVuSans-6d" transform="translate(847.417969 0.015625)"/>
     </g>
    </g>
    <g id="line2d_45">
     <path d="M 59.565625 57.053906 
L 69.565625 57.053906 
L 79.565625 57.053906 
" style="fill: none; stroke: #ff0000; stroke-linecap: square"/>
    </g>
    <g id="text_23">
     <!-- ron=1$e$ $d_{sa}$=0.25m -->
     <g transform="translate(87.565625 60.553906) scale(0.1 -0.1)">
      <use xlink:href="#DejaVuSans-72" transform="translate(0 0.015625)"/>
      <use xlink:href="#DejaVuSans-6f" transform="translate(41.113281 0.015625)"/>
      <use xlink:href="#DejaVuSans-6e" transform="translate(102.294922 0.015625)"/>
      <use xlink:href="#DejaVuSans-3d" transform="translate(165.673828 0.015625)"/>
      <use xlink:href="#DejaVuSans-31" transform="translate(249.462891 0.015625)"/>
      <use xlink:href="#DejaVuSans-Oblique-65" transform="translate(313.085938 0.015625)"/>
      <use xlink:href="#DejaVuSans-20" transform="translate(374.609375 0.015625)"/>
      <use xlink:href="#DejaVuSans-Oblique-64" transform="translate(406.396484 0.015625)"/>
      <use xlink:href="#DejaVuSans-Oblique-73" transform="translate(469.873047 -16.390625) scale(0.7)"/>
      <use xlink:href="#DejaVuSans-Oblique-61" transform="translate(506.342773 -16.390625) scale(0.7)"/>
      <use xlink:href="#DejaVuSans-3d" transform="translate(551.972656 0.015625)"/>
      <use xlink:href="#DejaVuSans-30" transform="translate(635.761719 0.015625)"/>
      <use xlink:href="#DejaVuSans-2e" transform="translate(699.384766 0.015625)"/>
      <use xlink:href="#DejaVuSans-32" transform="translate(725.671875 0.015625)"/>
      <use xlink:href="#DejaVuSans-35" transform="translate(789.294922 0.015625)"/>
      <use xlink:href="#DejaVuSans-6d" transform="translate(847.417969 0.015625)"/>
     </g>
    </g>
    <g id="line2d_46">
     <path d="M 59.565625 71.732031 
L 69.565625 71.732031 
L 79.565625 71.732031 
" style="fill: none; stroke-dasharray: 6,4; stroke-dashoffset: 0; stroke: #0000ff"/>
    </g>
    <g id="text_24">
     <!-- ron=3$e$ $d_{sa}$=0.5m -->
     <g transform="translate(87.565625 75.232031) scale(0.1 -0.1)">
      <use xlink:href="#DejaVuSans-72" transform="translate(0 0.015625)"/>
      <use xlink:href="#DejaVuSans-6f" transform="translate(41.113281 0.015625)"/>
      <use xlink:href="#DejaVuSans-6e" transform="translate(102.294922 0.015625)"/>
      <use xlink:href="#DejaVuSans-3d" transform="translate(165.673828 0.015625)"/>
      <use xlink:href="#DejaVuSans-33" transform="translate(249.462891 0.015625)"/>
      <use xlink:href="#DejaVuSans-Oblique-65" transform="translate(313.085938 0.015625)"/>
      <use xlink:href="#DejaVuSans-20" transform="translate(374.609375 0.015625)"/>
      <use xlink:href="#DejaVuSans-Oblique-64" transform="translate(406.396484 0.015625)"/>
      <use xlink:href="#DejaVuSans-Oblique-73" transform="translate(469.873047 -16.390625) scale(0.7)"/>
      <use xlink:href="#DejaVuSans-Oblique-61" transform="translate(506.342773 -16.390625) scale(0.7)"/>
      <use xlink:href="#DejaVuSans-3d" transform="translate(551.972656 0.015625)"/>
      <use xlink:href="#DejaVuSans-30" transform="translate(635.761719 0.015625)"/>
      <use xlink:href="#DejaVuSans-2e" transform="translate(699.384766 0.015625)"/>
      <use xlink:href="#DejaVuSans-35" transform="translate(731.171875 0.015625)"/>
      <use xlink:href="#DejaVuSans-6d" transform="translate(789.294922 0.015625)"/>
     </g>
    </g>
    <g id="line2d_47">
     <path d="M 59.565625 86.410156 
L 69.565625 86.410156 
L 79.565625 86.410156 
" style="fill: none; stroke-dasharray: 6,4; stroke-dashoffset: 0; stroke: #008000"/>
    </g>
    <g id="text_25">
     <!-- ron=2$e$ $d_{sa}$=0.5m -->
     <g transform="translate(87.565625 89.910156) scale(0.1 -0.1)">
      <use xlink:href="#DejaVuSans-72" transform="translate(0 0.015625)"/>
      <use xlink:href="#DejaVuSans-6f" transform="translate(41.113281 0.015625)"/>
      <use xlink:href="#DejaVuSans-6e" transform="translate(102.294922 0.015625)"/>
      <use xlink:href="#DejaVuSans-3d" transform="translate(165.673828 0.015625)"/>
      <use xlink:href="#DejaVuSans-32" transform="translate(249.462891 0.015625)"/>
      <use xlink:href="#DejaVuSans-Oblique-65" transform="translate(313.085938 0.015625)"/>
      <use xlink:href="#DejaVuSans-20" transform="translate(374.609375 0.015625)"/>
      <use xlink:href="#DejaVuSans-Oblique-64" transform="translate(406.396484 0.015625)"/>
      <use xlink:href="#DejaVuSans-Oblique-73" transform="translate(469.873047 -16.390625) scale(0.7)"/>
      <use xlink:href="#DejaVuSans-Oblique-61" transform="translate(506.342773 -16.390625) scale(0.7)"/>
      <use xlink:href="#DejaVuSans-3d" transform="translate(551.972656 0.015625)"/>
      <use xlink:href="#DejaVuSans-30" transform="translate(635.761719 0.015625)"/>
      <use xlink:href="#DejaVuSans-2e" transform="translate(699.384766 0.015625)"/>
      <use xlink:href="#DejaVuSans-35" transform="translate(731.171875 0.015625)"/>
      <use xlink:href="#DejaVuSans-6d" transform="translate(789.294922 0.015625)"/>
     </g>
    </g>
    <g id="line2d_48">
     <path d="M 59.565625 101.088281 
L 69.565625 101.088281 
L 79.565625 101.088281 
" style="fill: none; stroke-dasharray: 6,4; stroke-dashoffset: 0; stroke: #ff0000"/>
    </g>
    <g id="text_26">
     <!-- ron=1$e$ $d_{sa}$=0.5m -->
     <g transform="translate(87.565625 104.588281) scale(0.1 -0.1)">
      <use xlink:href="#DejaVuSans-72" transform="translate(0 0.015625)"/>
      <use xlink:href="#DejaVuSans-6f" transform="translate(41.113281 0.015625)"/>
      <use xlink:href="#DejaVuSans-6e" transform="translate(102.294922 0.015625)"/>
      <use xlink:href="#DejaVuSans-3d" transform="translate(165.673828 0.015625)"/>
      <use xlink:href="#DejaVuSans-31" transform="translate(249.462891 0.015625)"/>
      <use xlink:href="#DejaVuSans-Oblique-65" transform="translate(313.085938 0.015625)"/>
      <use xlink:href="#DejaVuSans-20" transform="translate(374.609375 0.015625)"/>
      <use xlink:href="#DejaVuSans-Oblique-64" transform="translate(406.396484 0.015625)"/>
      <use xlink:href="#DejaVuSans-Oblique-73" transform="translate(469.873047 -16.390625) scale(0.7)"/>
      <use xlink:href="#DejaVuSans-Oblique-61" transform="translate(506.342773 -16.390625) scale(0.7)"/>
      <use xlink:href="#DejaVuSans-3d" transform="translate(551.972656 0.015625)"/>
      <use xlink:href="#DejaVuSans-30" transform="translate(635.761719 0.015625)"/>
      <use xlink:href="#DejaVuSans-2e" transform="translate(699.384766 0.015625)"/>
      <use xlink:href="#DejaVuSans-35" transform="translate(731.171875 0.015625)"/>
      <use xlink:href="#DejaVuSans-6d" transform="translate(789.294922 0.015625)"/>
     </g>
    </g>
   </g>
  </g>
 </g>
 <defs>
  <clipPath id="pd2ff043297">
   <rect x="50.565625" y="14.599219" width="506.682812" height="376.244531"/>
  </clipPath>
 </defs>
</svg>
